<svg width="66" height="59" viewBox="0 0 66 59" fill="none" xmlns="http://www.w3.org/2000/svg"><path d="M13.555 46.883c3.846 3.438 8.745 5.78 14.08 6.728 5.334.949 10.864.462 15.889-1.399 5.025-1.86 9.32-5.012 12.341-9.054C58.887 39.115 60.5 34.362 60.5 29.5s-1.613-9.615-4.635-13.658C52.844 11.8 48.55 8.65 43.524 6.788c-5.025-1.86-10.555-2.348-15.889-1.399-5.335.949-10.235 3.29-14.08 6.728" stroke="#fff" stroke-width="2"/><path d="m41.25 29.5.745-.667.597.667-.597.667-.745-.667Zm-33 1a1 1 0 1 1 0-2v2Zm22.745-13.959 11 12.292-1.49 1.334-11-12.292 1.49-1.334Zm11 13.626-11 12.291-1.49-1.333 11-12.292 1.49 1.334Zm-.745.333h-33v-2h33v2Z" fill="#fff"/></svg>