<svg width="25" height="25" viewBox="0 0 25 25" fill="none" xmlns="http://www.w3.org/2000/svg">
<path id="Vector" d="M12.1695 6.48566L4.16732 14.9604V24.107C4.16732 24.3439 4.24048 24.571 4.37072 24.7385C4.50095 24.9059 4.67758 25 4.86176 25L9.72548 24.9838C9.90905 24.9826 10.0848 24.888 10.2143 24.7207C10.3438 24.5534 10.4165 24.3269 10.4164 24.0909V18.7493C10.4164 18.5125 10.4896 18.2853 10.6198 18.1179C10.7501 17.9504 10.9267 17.8563 11.1109 17.8563H13.8887C14.0728 17.8563 14.2495 17.9504 14.3797 18.1179C14.51 18.2853 14.5831 18.5125 14.5831 18.7493V24.087C14.5828 24.2045 14.6006 24.3209 14.6354 24.4295C14.6701 24.5382 14.7212 24.637 14.7857 24.7202C14.8503 24.8034 14.9269 24.8694 15.0113 24.9145C15.0957 24.9595 15.1862 24.9827 15.2776 24.9827L20.1395 25C20.3237 25 20.5004 24.9059 20.6306 24.7385C20.7608 24.571 20.834 24.3439 20.834 24.107V14.9542L12.8335 6.48566C12.7395 6.38817 12.6223 6.33501 12.5015 6.33501C12.3807 6.33501 12.2635 6.38817 12.1695 6.48566ZM24.8097 12.2458L21.1812 8.39993V0.669718C21.1812 0.492097 21.1263 0.321752 21.0287 0.196156C20.931 0.0705595 20.7985 0 20.6604 0H18.2298C18.0917 0 17.9592 0.0705595 17.8615 0.196156C17.7639 0.321752 17.709 0.492097 17.709 0.669718V4.72207L13.8231 0.611117C13.4502 0.21653 12.9823 0.000788785 12.4993 0.000788785C12.0164 0.000788785 11.5485 0.21653 11.1756 0.611117L0.189019 12.2458C0.136279 12.3018 0.0926449 12.3707 0.0606102 12.4484C0.0285755 12.5262 0.00876769 12.6113 0.00231864 12.6989C-0.0041304 12.7865 0.00290567 12.8748 0.0230248 12.9589C0.043144 13.043 0.0759519 13.1212 0.119574 13.189L1.22634 14.9191C1.26985 14.9871 1.32336 15.0434 1.38381 15.0848C1.44426 15.1262 1.51047 15.1519 1.57864 15.1603C1.64681 15.1688 1.71561 15.1598 1.7811 15.1341C1.84659 15.1083 1.90748 15.0661 1.96029 15.01L12.1695 4.19746C12.2635 4.09997 12.3807 4.04681 12.5015 4.04681C12.6223 4.04681 12.7395 4.09997 12.8335 4.19746L23.0432 15.01C23.0959 15.0661 23.1567 15.1083 23.2221 15.1342C23.2875 15.1601 23.3562 15.1691 23.4243 15.1608C23.4924 15.1525 23.5586 15.1271 23.6191 15.0859C23.6795 15.0447 23.7331 14.9886 23.7767 14.9208L24.8835 13.1906C24.927 13.1225 24.9597 13.0439 24.9796 12.9594C24.9995 12.875 25.0062 12.7863 24.9993 12.6985C24.9925 12.6107 24.9722 12.5255 24.9396 12.4478C24.9071 12.3701 24.8629 12.3015 24.8097 12.2458Z" fill="black"/>
</svg>
