<svg width="25" height="25" viewBox="0 0 25 25" fill="none" xmlns="http://www.w3.org/2000/svg">
<path id="Vector" d="M24.3104 6.93482L22.0594 9.18579C21.8299 9.41528 21.4588 9.41528 21.2293 9.18579L15.8094 3.76587C15.5799 3.53638 15.5799 3.16528 15.8094 2.93579L18.0604 0.684815C18.9735 -0.228272 20.4578 -0.228272 21.3758 0.684815L24.3104 3.61939C25.2283 4.53247 25.2283 6.01685 24.3104 6.93482ZM13.8758 4.86939L1.05353 17.6917L0.0183743 23.6243C-0.123227 24.4251 0.575015 25.1184 1.3758 24.9817L7.30841 23.9417L20.1307 11.1194C20.3602 10.8899 20.3602 10.5188 20.1307 10.2893L14.7108 4.86939C14.4764 4.63989 14.1053 4.63989 13.8758 4.86939ZM6.05841 16.593C5.78986 16.3245 5.78986 15.8948 6.05841 15.6262L13.5779 8.10669C13.8465 7.83814 14.2762 7.83814 14.5447 8.10669C14.8133 8.37525 14.8133 8.80493 14.5447 9.07349L7.02521 16.593C6.75665 16.8616 6.32697 16.8616 6.05841 16.593ZM4.29572 20.6995H6.63947V22.4719L3.49005 23.0237L1.9715 21.5051L2.52326 18.3557H4.29572V20.6995Z" fill="white"/>
</svg>
