<svg width="25" height="25" viewBox="0 0 25 25" fill="none" xmlns="http://www.w3.org/2000/svg">
<path id="Vector" d="M23.4375 0H1.5625C0.699544 0 0 0.524658 0 1.17188V1.95312C0 2.60034 0.699544 3.125 1.5625 3.125C1.5625 7.56665 4.88385 11.3151 9.42982 12.5C4.88385 13.6849 1.5625 17.4333 1.5625 21.875C0.699544 21.875 0 22.3997 0 23.0469V23.8281C0 24.4753 0.699544 25 1.5625 25H23.4375C24.3005 25 25 24.4753 25 23.8281V23.0469C25 22.3997 24.3005 21.875 23.4375 21.875C23.4375 17.4333 20.1161 13.6849 15.5702 12.5C20.1161 11.3151 23.4375 7.56665 23.4375 3.125C24.3005 3.125 25 2.60034 25 1.95312V1.17188C25 0.524658 24.3005 0 23.4375 0ZM18.5496 18.75H6.45052C7.56113 16.465 9.84219 14.8438 12.5 14.8438C15.1576 14.8438 17.4389 16.4646 18.5496 18.75ZM18.5508 6.25H6.45039C5.9888 5.3002 5.72917 4.23574 5.72917 3.125H19.2708C19.2708 4.23853 19.0113 5.3021 18.5508 6.25Z" fill="black"/>
</svg>
